# xmcd CD database file
#
# Track frame offsets:
#	150
#	12926
#	28530
#	43264
#	56279
#	71724
#	85319
#	98325
#	111429
#	122989
#	135732
#	148042
#	160750
#	175668
#	188956
#	200149
#	213239
#	226597
#
# Disc length: 3203 seconds
#
# Revision: 0
# Processed by: cddbd v1.4PL0 Copyright (c) Steve Scherf et al.
# Submitted via: CD2WAV32(EN) R3.19
#
DISCID=f90c8112
DTITLE=Karády Katalin - Karády Katalin
DYEAR=1900
DGENRE=
TTITLE0=Gyûlölöm a vadvirágos rétet
TTITLE1=Hamvadó Cigarettavég
TTITLE2=Húnyd be a szemed és gondolj rám
TTITLE3=Hiába menekülsz, hiába futsz
TTITLE4=Mindig az a perc a legszebb
TTITLE5=Ez lett a vesztünk
TTITLE6=Ne kérdezd ki voltam
TTITLE7=A kettõnk életét
TTITLE8=Ezt a nagy szerelmet
TTITLE9=Álltam a hídon
TTITLE10=Száz vágy muzsikál most az éjben
TTITLE11=Ilyennek képzeltelek mindig
TTITLE12=Jóéjt Budapest
TTITLE13=Katyusa - orosz dal
TTITLE14=Gyévuska - orosz dal
TTITLE15=Veled szeretnék boldog lenni
TTITLE16=Fogadj el engem
TTITLE17=Egy szédült pillanat
EXTD=
EXTT0=Polgár Tibor - Székely S. Dénes
EXTT1=Hegedûs Tamás - G. Dénes György
EXTT2=Hegedûs Tamás - G. Dénes György
EXTT3=Malcsiner Béla
EXTT4=Fényes Szabolcs - Mihály István
EXTT5=Polgár Tibor - Nadányi Zoltán
EXTT6=Papír Viktor - Örsi Mária
EXTT7=Hajdú Júlia - Rákosi János
EXTT8=Orlay Jenõ (Chappy) - G. Dénes György
EXTT9=Horváth Jenõ - Szenes Iván
EXTT10=Fényes Szabolcs - Mihály István
EXTT11=Orlay Jenõ (Chappy) - Szenes Iván
EXTT12=Bródy Tamás - G. Dénes György
EXTT13=Blantyer - Pártos Jenõ
EXTT14=Blantyer - Pártos Jenõ
EXTT15=Malcsiner Béla
EXTT16=Szabó Kálmány
EXTT17=de Fries Károly - Kovách Aladár
PLAYORDER=
